<svg xmlns = "http://www.w3.org/2000/svg" viewBox = "0 0 10 20">
    <path d = "m0 3 1 0 0-1 1 0 0-1 1 0 0-1 4 0 0 1 1 0 0 1 1 0 0 1 1 0 0 5-1 0 0 1-1 0 0 1-1 0 0 1 1 0 0 4 0 3-6 0 0-7-1 0 0 1-1 0 0-1 1 0 0-1 1 0 0-1-1 0 0-1-1 0z" fill = "#777"></path>
    <path d = "m1 3 1 0 0-1 1 0 0-1 4 0 0 1 1 0 0 1 1 0 0 5-1 0 0 1-1 0 0 1-4 0 0-1-1 0 0-1-1 0zm7 10 2 0 0 1-1 0 0 1-1 0z" fill = "#edb"></path>
    <path d = "m3 12 1 0 0 1-1 0zm3 0 2 0 0 1-2 0zm-4 2 2 0 0 1 1 0 0 1 2 0 0-1 1 0 0 2-3 0 0-1-1 0 0 1-2 0 0-1 2 0 0-1-2 0z" fill = "#fff"></path>
    <path d = "m5 5 1 0 0 1-1 0zm2 0 1 0 0 1-1 0z" fill = "#777"></path>
    <path d = "m2 18 2 0 0 2-2 0zm4 0 2 0 0 2-2 0z" fill = "#a76"></path>
</svg>
